<svg width="20" height="20" viewBox="0 0 20 20" fill="none" xmlns="http://www.w3.org/2000/svg">
<path fill-rule="evenodd" clip-rule="evenodd" d="M11.875 3C11.875 2.37868 12.3787 1.875 13 1.875H17C17.6213 1.875 18.125 2.37868 18.125 3V17C18.125 17.6213 17.6213 18.125 17 18.125H3C2.37868 18.125 1.875 17.6213 1.875 17V13.8333C1.875 13.212 2.37868 12.7083 3 12.7083H6.875V8C6.875 7.37868 7.37868 6.875 8 6.875H11.875V3ZM11.875 8.125H8.125V16.875H11.875V8.125ZM13.125 16.875H16.875V3.125H13.125V16.875ZM6.875 16.875V13.9583H3.125V16.875H6.875Z" fill="#6B7280"/>
</svg>
