<svg width="20" height="20" viewBox="0 0 20 20" fill="none" xmlns="http://www.w3.org/2000/svg">
<g clip-path="url(#clip0_7107_914)">
<path d="M19.0831 16.3627L14.3476 2.09845C14.0538 1.21419 13.0635 0.723304 12.14 1.00425L10.4288 1.52496C10.3113 1.56081 10.1981 1.60839 10.0911 1.66693C9.78544 1.1691 9.22046 0.833984 8.57495 0.833984H6.77979C6.31777 0.833984 5.89706 1.00579 5.58302 1.28587C5.26895 1.00579 4.84828 0.833984 4.38625 0.833984H2.5911C1.62187 0.833984 0.833344 1.58895 0.833344 2.51693V17.4844C0.833344 18.4124 1.62187 19.1673 2.5911 19.1673H4.38625C4.84828 19.1673 5.26898 18.9955 5.58302 18.7154C5.89706 18.9955 6.31777 19.1673 6.77979 19.1673H8.57495C9.54418 19.1673 10.3327 18.4124 10.3327 17.4844V6.79021L14.0219 17.9029C14.2596 18.6183 14.9532 19.0762 15.6986 19.0762C15.8745 19.0762 16.0532 19.0507 16.2295 18.9971L17.9408 18.4764C18.3881 18.3401 18.7533 18.0452 18.9691 17.6461C19.185 17.2468 19.2255 16.7909 19.0831 16.3627ZM16.2012 11.2281L13.2786 12.1175L11.4433 6.58925L14.3659 5.6998L16.2012 11.2281ZM16.5411 12.2518L16.9262 13.412L14.0036 14.3015L13.6184 13.1412L16.5411 12.2518ZM6.14401 5.95443H9.21073V11.7552H6.14401V5.95443ZM5.02204 11.7552H1.95532V5.95443H5.02204V11.7552ZM1.95532 12.8294H5.02204V14.0469H1.95532V12.8294ZM6.14401 12.8294H9.21073V14.0469H6.14401V12.8294ZM6.77979 1.9082H8.57495C8.92553 1.9082 9.21073 2.18127 9.21073 2.51693V4.88021H6.14401V2.51693C6.14401 2.18127 6.42921 1.9082 6.77979 1.9082ZM2.5911 1.9082H4.38625C4.73683 1.9082 5.02204 2.18127 5.02204 2.51693V4.88021H1.95532V2.51693C1.95532 2.18127 2.24052 1.9082 2.5911 1.9082ZM4.38625 18.0931H2.5911C2.24052 18.0931 1.95532 17.82 1.95532 17.4844V15.1211H5.02204V17.4844C5.02204 17.82 4.73683 18.0931 4.38625 18.0931ZM8.57495 18.0931H6.77979C6.42921 18.0931 6.14401 17.82 6.14401 17.4844V15.1211H9.21073V17.4844C9.21073 17.82 8.92553 18.0931 8.57495 18.0931ZM10.3327 3.04261C10.3496 2.92936 10.3995 2.82295 10.4766 2.73558C10.5538 2.64822 10.6551 2.58342 10.7689 2.54862L12.4799 2.02798C12.8139 1.92636 13.1722 2.10407 13.2784 2.42394L14.0261 4.67603L11.1035 5.56549L10.3558 3.31346C10.3447 3.2802 10.3327 3.04261 10.3327 3.04261ZM17.9727 17.1522C17.9345 17.2234 17.8819 17.2865 17.8181 17.3381C17.7542 17.3897 17.6803 17.4286 17.6006 17.4527L15.8897 17.9733C15.5557 18.0749 15.1974 17.8973 15.0911 17.5774L14.3435 15.3253L17.2661 14.4358L18.0139 16.6884C18.0394 16.7645 18.0489 16.8446 18.0419 16.9243C18.0348 17.0039 18.0113 17.0814 17.9727 17.1522Z" fill="#6B7280"/>
</g>
<defs>
<clipPath id="clip0_7107_914">
<rect width="20" height="20" fill="white"/>
</clipPath>
</defs>
</svg>
