<svg width="20" height="20" viewBox="0 0 20 20" fill="none" xmlns="http://www.w3.org/2000/svg">
<path fill-rule="evenodd" clip-rule="evenodd" d="M13.6441 3.8526C14.3356 3.16111 15.4567 3.16111 16.1482 3.8526C16.8397 4.54409 16.8397 5.66522 16.1482 6.35671L10.2511 12.2538C10.2404 12.2645 10.2299 12.275 10.2195 12.2854C10.0371 12.4681 9.89347 12.6119 9.72129 12.7174C9.56956 12.8103 9.40414 12.8789 9.2311 12.9204C9.03474 12.9676 8.83153 12.9674 8.57338 12.9673C8.55866 12.9673 8.54377 12.9673 8.52869 12.9673H7.49604C7.2406 12.9673 7.03353 12.7602 7.03353 12.5048V11.4721C7.03353 11.457 7.03352 11.4422 7.03351 11.4274C7.03336 11.1693 7.03325 10.9661 7.08039 10.7697C7.12193 10.5967 7.19045 10.4313 7.28343 10.2795C7.38895 10.1073 7.53272 9.96373 7.71537 9.7813C7.72578 9.7709 7.73632 9.76037 7.74698 9.74971L13.6441 3.8526ZM15.4941 4.50669C15.1639 4.17643 14.6284 4.17643 14.2982 4.50668L8.40106 10.4038C8.17219 10.6327 8.11315 10.6959 8.07214 10.7628C8.02987 10.8318 7.99873 10.907 7.97984 10.9857C7.96152 11.062 7.95854 11.1484 7.95854 11.4721V12.0423H8.52869C8.85237 12.0423 8.93883 12.0393 9.01516 12.021C9.09381 12.0021 9.16901 11.9709 9.23797 11.9287C9.30491 11.8876 9.36814 11.8286 9.59702 11.5997L15.4941 5.70263C15.8244 5.37238 15.8244 4.83694 15.4941 4.50669ZM6.73625 4.64215L9.34608 4.64215C9.60151 4.64215 9.80859 4.84922 9.80859 5.10466C9.80859 5.36009 9.60151 5.56716 9.34608 5.56716H6.75604C6.23036 5.56716 5.86391 5.56752 5.57861 5.59083C5.29872 5.6137 5.13791 5.65633 5.01611 5.71839C4.75503 5.85142 4.54277 6.06368 4.40974 6.32476C4.34768 6.44657 4.30505 6.60737 4.28218 6.88727C4.25887 7.17256 4.25851 7.53901 4.25851 8.0647V13.2448C4.25851 13.7705 4.25887 14.1369 4.28218 14.4222C4.30505 14.7021 4.34768 14.8629 4.40974 14.9847C4.54277 15.2458 4.75503 15.458 5.01611 15.5911C5.13791 15.6531 5.29872 15.6958 5.57861 15.7186C5.86391 15.7419 6.23036 15.7423 6.75604 15.7423H11.9361C12.4618 15.7423 12.8283 15.7419 13.1135 15.7186C13.3934 15.6958 13.5542 15.6531 13.6761 15.5911C13.9371 15.458 14.1494 15.2458 14.2824 14.9847C14.3445 14.8629 14.3871 14.7021 14.41 14.4222C14.4333 14.1369 14.4337 13.7705 14.4337 13.2448V10.6547C14.4337 10.3993 14.6407 10.1922 14.8962 10.1922C15.1516 10.1922 15.3587 10.3993 15.3587 10.6547V13.2646C15.3587 13.7658 15.3587 14.1701 15.3319 14.4975C15.3044 14.8346 15.2462 15.1307 15.1066 15.4047C14.8849 15.8398 14.5311 16.1936 14.096 16.4153C13.8221 16.5548 13.526 16.613 13.1889 16.6406C12.8615 16.6673 12.4572 16.6673 11.9559 16.6673H6.73623C6.23498 16.6673 5.83068 16.6673 5.50329 16.6406C5.16619 16.613 4.8701 16.5548 4.59616 16.4153C4.16103 16.1936 3.80726 15.8398 3.58555 15.4047C3.44597 15.1307 3.38778 14.8346 3.36024 14.4975C3.33349 14.1701 3.33349 13.7658 3.3335 13.2646V8.0449C3.33349 7.54364 3.33349 7.13934 3.36024 6.81194C3.38778 6.47484 3.44597 6.17875 3.58555 5.90482C3.80726 5.46968 4.16103 5.11591 4.59616 4.8942C4.8701 4.75462 5.16619 4.69643 5.50329 4.66889C5.83069 4.64214 6.23499 4.64215 6.73625 4.64215Z" fill="#4B5563"/>
</svg>
