<svg width="20" height="20" viewBox="0 0 20 20" fill="none" xmlns="http://www.w3.org/2000/svg">
<path fill-rule="evenodd" clip-rule="evenodd" d="M9.99959 6.87435C8.2737 6.87435 6.87459 8.27346 6.87459 9.99935C6.87459 11.7252 8.2737 13.1243 9.99959 13.1243C11.7255 13.1243 13.1246 11.7252 13.1246 9.99935C13.1246 8.27346 11.7255 6.87435 9.99959 6.87435ZM8.12459 9.99935C8.12459 8.96382 8.96405 8.12435 9.99959 8.12435C11.0351 8.12435 11.8746 8.96382 11.8746 9.99935C11.8746 11.0349 11.0351 11.8743 9.99959 11.8743C8.96405 11.8743 8.12459 11.0349 8.12459 9.99935Z" fill="#6B7280"/>
<path fill-rule="evenodd" clip-rule="evenodd" d="M9.97853 1.04102C9.60815 1.04101 9.29895 1.041 9.04511 1.05832C8.78086 1.07635 8.53125 1.11522 8.28926 1.21546C7.72774 1.44805 7.28161 1.89418 7.04902 2.4557C6.92793 2.74803 6.89514 3.05611 6.88262 3.39099C6.87255 3.66018 6.7367 3.88477 6.53621 4.00052C6.33572 4.11627 6.07329 4.12162 5.83514 3.99575C5.53886 3.83916 5.25566 3.71351 4.94194 3.67221C4.33936 3.59288 3.72993 3.75617 3.24774 4.12617C3.03994 4.28562 2.88148 4.48235 2.73374 4.70218C2.59182 4.91336 2.43722 5.18114 2.25203 5.5019L2.23099 5.53836C2.04579 5.85911 1.89119 6.12688 1.77927 6.35538C1.66276 6.59324 1.57162 6.82884 1.53743 7.08853C1.45809 7.69111 1.62139 8.30054 1.99139 8.78272C2.18398 9.03372 2.43436 9.21615 2.71806 9.39441C2.94621 9.53776 3.07281 9.76778 3.0728 9.99933C3.07279 10.2309 2.94618 10.4608 2.71806 10.6042C2.43432 10.7825 2.18392 10.9649 1.9913 11.2159C1.62131 11.6981 1.45801 12.3075 1.53735 12.9101C1.57153 13.1698 1.66267 13.4054 1.77919 13.6433C1.89111 13.8718 2.04571 14.1395 2.2309 14.4603L2.25195 14.4967C2.43714 14.8175 2.59173 15.0853 2.73366 15.2965C2.8814 15.5163 3.03986 15.713 3.24766 15.8725C3.72985 16.2425 4.33927 16.4058 4.94186 16.3264C5.25556 16.2851 5.53875 16.1595 5.835 16.0029C6.07319 15.877 6.33566 15.8824 6.53617 15.9981C6.73668 16.1139 6.87255 16.3385 6.88262 16.6078C6.89514 16.9426 6.92794 17.2507 7.04902 17.543C7.28161 18.1045 7.72774 18.5506 8.28926 18.7832C8.53125 18.8835 8.78086 18.9223 9.04511 18.9404C9.29895 18.9577 9.60815 18.9577 9.97853 18.9577H10.0206C10.391 18.9577 10.7002 18.9577 10.954 18.9404C11.2183 18.9223 11.4679 18.8835 11.7099 18.7832C12.2714 18.5506 12.7175 18.1045 12.9501 17.543C13.0712 17.2507 13.104 16.9426 13.1165 16.6077C13.1266 16.3385 13.2624 16.1139 13.4629 15.9981C13.6634 15.8823 13.9259 15.877 14.1641 16.0029C14.4603 16.1594 14.7435 16.2851 15.0572 16.3264C15.6598 16.4057 16.2692 16.2424 16.7514 15.8724C16.9592 15.713 17.1177 15.5162 17.2654 15.2964C17.4073 15.0852 17.5619 14.8175 17.7471 14.4967L17.7681 14.4603C17.9533 14.1395 18.108 13.8717 18.2199 13.6432C18.3364 13.4053 18.4275 13.1697 18.4617 12.9101C18.5411 12.3075 18.3778 11.6981 18.0078 11.2159C17.8152 10.9648 17.5648 10.7824 17.281 10.6041C17.0529 10.4608 16.9263 10.2308 16.9264 9.99931C16.9264 9.76781 17.053 9.53786 17.281 9.39455C17.5648 9.21626 17.8152 9.03382 18.0078 8.78278C18.3778 8.30059 18.5411 7.69117 18.4618 7.08858C18.4276 6.8289 18.3365 6.5933 18.22 6.35543C18.1081 6.12695 17.9535 5.85921 17.7683 5.53848L17.7472 5.502C17.562 5.18123 17.4074 4.91342 17.2655 4.70224C17.1178 4.48241 16.9593 4.28568 16.7515 4.12623C16.2693 3.75623 15.6599 3.59294 15.0573 3.67227C14.7436 3.71357 14.4604 3.8392 14.1642 3.99578C13.926 4.12167 13.6635 4.11632 13.463 4.00055C13.2625 3.88479 13.1266 3.66016 13.1165 3.39094C13.104 3.05609 13.0712 2.74802 12.9501 2.4557C12.7175 1.89418 12.2714 1.44805 11.7099 1.21546C11.4679 1.11522 11.2183 1.07635 10.954 1.05832C10.7002 1.041 10.391 1.04101 10.0206 1.04102H9.97853ZM8.76761 2.37031C8.83191 2.34368 8.92959 2.31911 9.1302 2.30542C9.33641 2.29135 9.60274 2.29102 9.99958 2.29102C10.3964 2.29102 10.6627 2.29135 10.869 2.30542C11.0696 2.31911 11.1672 2.34368 11.2315 2.37031C11.4868 2.47603 11.6896 2.67882 11.7953 2.93405C11.8286 3.01457 11.8563 3.14008 11.8674 3.43766C11.8921 4.09797 12.2329 4.73376 12.838 5.08308C13.443 5.43241 14.1641 5.40968 14.7483 5.10091C15.0115 4.96176 15.134 4.92295 15.2204 4.91157C15.4944 4.87551 15.7714 4.94974 15.9905 5.11792C16.0457 5.16028 16.1159 5.23259 16.228 5.39948C16.3433 5.57104 16.4768 5.80151 16.6752 6.14518C16.8736 6.48885 17.0065 6.71967 17.0974 6.90529C17.1859 7.08587 17.2134 7.18274 17.2225 7.25174C17.2586 7.52564 17.1843 7.80265 17.0162 8.02183C16.9631 8.09097 16.8682 8.17768 16.616 8.33613C16.0566 8.68764 15.6764 9.30064 15.6764 9.99924C15.6763 10.6979 16.0565 11.311 16.616 11.6626C16.8682 11.821 16.963 11.9077 17.0161 11.9768C17.1843 12.196 17.2585 12.473 17.2224 12.7469C17.2133 12.8159 17.1858 12.9128 17.0973 13.0933C17.0064 13.279 16.8735 13.5098 16.6751 13.8535C16.4767 14.1971 16.3432 14.4276 16.2279 14.5992C16.1158 14.766 16.0457 14.8384 15.9905 14.8807C15.7713 15.0489 15.4943 15.1231 15.2204 15.0871C15.134 15.0757 15.0115 15.0369 14.7482 14.8977C14.164 14.589 13.4429 14.5663 12.8379 14.9156C12.2329 15.265 11.8921 15.9007 11.8674 16.561C11.8563 16.8586 11.8286 16.9841 11.7953 17.0646C11.6896 17.3199 11.4868 17.5227 11.2315 17.6284C11.1672 17.655 11.0696 17.6796 10.869 17.6933C10.6627 17.7073 10.3964 17.7077 9.99958 17.7077C9.60274 17.7077 9.33641 17.7073 9.1302 17.6933C8.92959 17.6796 8.83191 17.655 8.76761 17.6284C8.51238 17.5227 8.30959 17.3199 8.20387 17.0646C8.17052 16.9841 8.14288 16.8586 8.13174 16.561C8.10705 15.9007 7.76622 15.2649 7.16117 14.9156C6.55611 14.5663 5.8351 14.589 5.2509 14.8978C4.98762 15.0369 4.86511 15.0758 4.77871 15.0871C4.5048 15.1232 4.22779 15.049 4.00861 14.8808C3.9534 14.8384 3.88329 14.7661 3.77113 14.5992C3.65584 14.4277 3.52238 14.1972 3.32396 13.8535C3.12555 13.5098 2.99268 13.279 2.90175 13.0934C2.8133 12.9128 2.78573 12.816 2.77665 12.747C2.74059 12.4731 2.81482 12.196 2.983 11.9769C3.03605 11.9077 3.13092 11.821 3.38308 11.6626C3.94257 11.3111 4.32276 10.698 4.3228 9.9994C4.32284 9.30069 3.94263 8.68758 3.38309 8.336C3.13099 8.17759 3.03612 8.0909 2.98308 8.02177C2.8149 7.8026 2.74067 7.52559 2.77673 7.25168C2.78582 7.18269 2.81338 7.08581 2.90183 6.90524C2.99276 6.71961 3.12563 6.4888 3.32405 6.14513C3.52246 5.80146 3.65592 5.57098 3.77121 5.39942C3.88337 5.23254 3.95348 5.16023 4.0087 5.11786C4.22787 4.94968 4.50488 4.87546 4.77879 4.91152C4.86519 4.92289 4.98772 4.96171 5.25103 5.10088C5.8352 5.40964 6.55618 5.43237 7.1612 5.08306C7.76623 4.73375 8.10705 4.09799 8.13174 3.4377C8.14287 3.14009 8.17052 3.01457 8.20387 2.93405C8.30959 2.67882 8.51238 2.47603 8.76761 2.37031Z" fill="#6B7280"/>
</svg>
