<svg width="20" height="20" viewBox="0 0 20 20" fill="none" xmlns="http://www.w3.org/2000/svg">
<path fill-rule="evenodd" clip-rule="evenodd" d="M7.87093 1.04102H12.1291C13.2687 1.041 14.1873 1.04099 14.9098 1.13812C15.6599 1.23897 16.2914 1.45471 16.793 1.95631C17.2946 2.45791 17.5104 3.08947 17.6112 3.83956C17.7084 4.56203 17.7083 5.48063 17.7083 6.62029L17.7083 15.5854C17.7084 16.1742 17.7084 16.6851 17.6505 17.077C17.5899 17.4868 17.4428 17.94 16.9983 18.2095C16.3596 18.5967 15.6511 18.3333 15.2317 18.1268C14.9951 18.0103 14.7721 17.8721 14.5857 17.7516C14.5122 17.704 14.4479 17.6616 14.3903 17.6237C14.289 17.5569 14.2083 17.5037 14.1339 17.4595C13.9091 17.3261 13.7775 17.2487 13.6735 17.1997C13.5844 17.1577 13.5568 17.1572 13.5516 17.1571L13.5501 17.157C13.5399 17.1566 13.514 17.1557 13.4305 17.1926C13.3267 17.2385 13.1902 17.3166 12.9495 17.4595L11.2353 18.4769C11.0263 18.601 10.8315 18.7167 10.6566 18.7979C10.4623 18.8881 10.2492 18.9576 9.99999 18.9576C9.75081 18.9576 9.53764 18.8881 9.34341 18.7979C9.16849 18.7167 8.97372 18.601 8.7647 18.4769L7.05052 17.4595C6.82573 17.3261 6.69416 17.2487 6.59019 17.1997C6.50109 17.1577 6.47347 17.1572 6.46825 17.1571L6.46678 17.157C6.45655 17.1566 6.43069 17.1557 6.34717 17.1926C6.24338 17.2385 6.10682 17.3166 5.86613 17.4595C5.79171 17.5037 5.71095 17.5569 5.60966 17.6237C5.55204 17.6616 5.48778 17.704 5.41426 17.7516C5.22793 17.8721 5.00487 18.0103 4.76828 18.1268C4.34894 18.3333 3.64041 18.5966 3.00169 18.2095C2.55717 17.94 2.41008 17.4868 2.34951 17.077C2.29158 16.6851 2.29162 16.1742 2.29166 15.5854L2.29166 6.62029C2.29164 5.48063 2.29163 4.56203 2.38876 3.83956C2.48961 3.08947 2.70536 2.4579 3.20695 1.95631C3.70855 1.45471 4.34011 1.23897 5.0902 1.13812C5.81267 1.04099 6.73127 1.041 7.87093 1.04102ZM5.25676 2.37697C4.64528 2.45918 4.32147 2.60956 4.09084 2.84019C3.8602 3.07083 3.70983 3.39464 3.62762 4.00612C3.54299 4.63558 3.54166 5.46984 3.54166 6.66602V15.5375C3.54166 16.1882 3.54331 16.6049 3.58607 16.8943C3.60646 17.0322 3.63129 17.1006 3.64682 17.1312C3.64949 17.1365 3.65162 17.1401 3.65309 17.1424C3.68932 17.1611 3.83511 17.193 4.21609 17.0054C4.38635 16.9216 4.56084 16.8149 4.7353 16.702C4.78367 16.6707 4.8352 16.6368 4.88751 16.6024C5.00613 16.5243 5.12882 16.4435 5.22811 16.3846C5.24862 16.3724 5.26908 16.3602 5.2895 16.3481C5.67764 16.1169 6.05252 15.8936 6.50644 15.9076C6.7408 15.9149 6.94081 15.9831 7.12314 16.069C7.28763 16.1466 7.47093 16.2554 7.66762 16.3722L9.38046 17.3888C9.61939 17.5306 9.7593 17.6128 9.86988 17.6642C9.96426 17.708 9.99341 17.7077 9.99947 17.7076H10.0005C10.0066 17.7077 10.0357 17.708 10.1301 17.6642C10.2407 17.6128 10.3806 17.5306 10.6195 17.3888L12.3114 16.3846C12.332 16.3724 12.3524 16.3602 12.3728 16.3481C12.761 16.1169 13.1359 15.8936 13.5898 15.9076C13.8241 15.9149 14.0241 15.9831 14.2065 16.069C14.371 16.1466 14.5543 16.2554 14.751 16.3722L14.7719 16.3846C14.8712 16.4435 14.9939 16.5243 15.1125 16.6024C15.1648 16.6368 15.2163 16.6707 15.2647 16.702C15.4392 16.8149 15.6136 16.9216 15.7839 17.0054C16.1649 17.193 16.3107 17.1611 16.3469 17.1424C16.3484 17.1401 16.3505 17.1365 16.3532 17.1312C16.3687 17.1006 16.3935 17.0322 16.4139 16.8943C16.4567 16.6049 16.4583 16.1882 16.4583 15.5375V6.66602C16.4583 5.46984 16.457 4.63558 16.3724 4.00612C16.2902 3.39464 16.1398 3.07083 15.9092 2.84019C15.6785 2.60956 15.3547 2.45918 14.7432 2.37697C14.1138 2.29234 13.2795 2.29102 12.0833 2.29102H7.91666C6.72048 2.29102 5.88622 2.29234 5.25676 2.37697ZM7.49999 7.29102C7.15482 7.29102 6.87499 7.01119 6.87499 6.66602C6.87499 6.32084 7.15482 6.04102 7.49999 6.04102H7.50747C7.85265 6.04102 8.13247 6.32084 8.13247 6.66602C8.13247 7.01119 7.85265 7.29102 7.50747 7.29102H7.49999ZM12.0581 6.22407C12.3021 5.98 12.6979 5.98 12.9419 6.22407C13.186 6.46815 13.186 6.86388 12.9419 7.10796L7.94194 12.108C7.69786 12.352 7.30213 12.352 7.05805 12.108C6.81397 11.8639 6.81397 11.4682 7.05805 11.2241L12.0581 6.22407ZM11.8675 11.666C11.8675 11.3208 12.1473 11.041 12.4925 11.041H12.5C12.8452 11.041 13.125 11.3208 13.125 11.666C13.125 12.0112 12.8452 12.291 12.5 12.291H12.4925C12.1473 12.291 11.8675 12.0112 11.8675 11.666Z" fill="#6B7280"/>
</svg>
