<svg width="20" height="20" viewBox="0 0 20 20" fill="none" xmlns="http://www.w3.org/2000/svg">
<path d="M2.91666 15.2077C2.57148 15.2077 2.29166 14.9279 2.29166 14.5827V3.41602C2.29166 2.79469 2.79534 2.29102 3.41666 2.29102H14.5833C14.9285 2.29102 15.2083 2.57084 15.2083 2.91602C15.2083 3.26119 14.9285 3.54102 14.5833 3.54102H3.54166V14.5827C3.54166 14.9279 3.26183 15.2077 2.91666 15.2077Z" fill="#0284C7"/>
<path fill-rule="evenodd" clip-rule="evenodd" d="M10.6621 8.66777C9.91229 8.21786 8.95832 8.75799 8.95832 9.63244V12.8663C8.95832 13.7407 9.91229 14.2808 10.6621 13.8309L13.357 12.214C14.0852 11.7771 14.0852 10.7216 13.357 10.2847L10.6621 8.66777ZM10.2083 12.6455V9.85322L12.5352 11.2493L10.2083 12.6455Z" fill="#0284C7"/>
<path fill-rule="evenodd" clip-rule="evenodd" d="M17.7083 16.5827C17.7083 17.204 17.2046 17.7077 16.5833 17.7077H5.91666C5.29534 17.7077 4.79166 17.204 4.79166 16.5827V5.91602C4.79166 5.29469 5.29534 4.79102 5.91666 4.79102H16.5833C17.2046 4.79102 17.7083 5.2947 17.7083 5.91602V16.5827ZM6.04166 16.4577H16.4583V6.04102H6.04166V16.4577Z" fill="#0284C7"/>
</svg>
