<svg width="20" height="20" viewBox="0 0 20 20" fill="none" xmlns="http://www.w3.org/2000/svg">
<path d="M9.99999 3.24252C9.20662 3.24252 8.53005 3.72526 8.27933 4.401C8.16741 4.70264 7.81998 4.86073 7.50333 4.75412C7.18668 4.64751 7.02071 4.31656 7.13263 4.01493C7.54974 2.89078 8.67518 2.08398 9.99999 2.08398C11.3248 2.08398 12.4502 2.89078 12.8673 4.01493C12.9793 4.31656 12.8133 4.64751 12.4967 4.75412C12.18 4.86073 11.8326 4.70264 11.7207 4.401C11.4699 3.72526 10.7934 3.24252 9.99999 3.24252Z" fill="#4B5563"/>
<path d="M2.5 5.75268C2.5 5.43276 2.77226 5.17341 3.10811 5.17341H16.8919C17.2277 5.17341 17.5 5.43276 17.5 5.75268C17.5 6.0726 17.2277 6.33195 16.8919 6.33195H3.10811C2.77226 6.33195 2.5 6.0726 2.5 5.75268Z" fill="#4B5563"/>
<path d="M5.06627 7.64506C5.04393 7.32585 4.75417 7.08433 4.41906 7.10561C4.08396 7.12689 3.83042 7.40291 3.85276 7.72212L4.22852 13.0913C4.29784 14.0821 4.35384 14.8823 4.48517 15.5103C4.62171 16.1632 4.85394 16.7085 5.33361 17.136C5.81328 17.5635 6.39993 17.7479 7.09289 17.8343C7.75941 17.9173 8.60138 17.9173 9.64375 17.9173H10.3563C11.3987 17.9173 12.2407 17.9173 12.9072 17.8343C13.6001 17.7479 14.1868 17.5635 14.6665 17.136C15.1461 16.7085 15.3784 16.1632 15.5149 15.5103C15.6462 14.8824 15.7022 14.0821 15.7715 13.0914L16.1473 7.72212C16.1696 7.40291 15.9161 7.12689 15.581 7.10561C15.2459 7.08433 14.9561 7.32585 14.9338 7.64506L14.5609 12.9736C14.488 14.0147 14.4361 14.739 14.3221 15.284C14.2116 15.8126 14.0572 16.0924 13.8356 16.29C13.6139 16.4876 13.3105 16.6156 12.7494 16.6855C12.171 16.7576 11.4088 16.7588 10.3136 16.7588H9.68651C8.59123 16.7588 7.82907 16.7576 7.25064 16.6855C6.68956 16.6156 6.38619 16.4876 6.1645 16.29C5.94282 16.0924 5.78849 15.8126 5.67794 15.284C5.56397 14.739 5.51205 14.0147 5.4392 12.9736L5.06627 7.64506Z" fill="#4B5563"/>
<path d="M7.91251 9.03811C8.24669 9.00628 8.54469 9.23853 8.57811 9.55687L8.98351 13.4186C9.01693 13.737 8.77311 14.0208 8.43893 14.0527C8.10475 14.0845 7.80675 13.8523 7.77333 13.5339L7.36793 9.67214C7.33451 9.35381 7.57833 9.06995 7.91251 9.03811Z" fill="#4B5563"/>
<path d="M12.6321 9.67214C12.6656 9.35381 12.4217 9.06995 12.0876 9.03811C11.7534 9.00628 11.4554 9.23853 11.422 9.55687L11.0166 13.4186C10.9831 13.737 11.227 14.0208 11.5611 14.0527C11.8953 14.0845 12.1933 13.8523 12.2267 13.5339L12.6321 9.67214Z" fill="#4B5563"/>
</svg>
