<svg width="24" height="24" viewBox="0 0 24 24" fill="none" xmlns="http://www.w3.org/2000/svg">
<path fill-rule="evenodd" clip-rule="evenodd" d="M12.3329 6.6667C13.0692 6.6667 13.6662 6.06974 13.6662 5.33335C13.6662 4.59696 13.0692 4 12.3329 4C11.5965 4 10.9995 4.59696 10.9995 5.33335C10.9995 6.06974 11.5965 6.6667 12.3329 6.6667ZM12.3329 13.3347C13.0692 13.3347 13.6662 12.7377 13.6662 12.0013C13.6662 11.2649 13.0692 10.668 12.3329 10.668C11.5965 10.668 10.9995 11.2649 10.9995 12.0013C10.9995 12.7377 11.5965 13.3347 12.3329 13.3347ZM13.6662 18.6664C13.6662 19.4028 13.0692 19.9997 12.3329 19.9997C11.5965 19.9997 10.9995 19.4028 10.9995 18.6664C10.9995 17.93 11.5965 17.333 12.3329 17.333C13.0692 17.333 13.6662 17.93 13.6662 18.6664Z" fill="#1F2937"/>
</svg>
