<svg width="20" height="20" viewBox="0 0 20 20" fill="none" xmlns="http://www.w3.org/2000/svg">
<path fill-rule="evenodd" clip-rule="evenodd" d="M13.6439 3.8526C14.3354 3.16111 15.4565 3.16111 16.148 3.8526C16.8395 4.54409 16.8395 5.66522 16.148 6.35671L10.2509 12.2538C10.2403 12.2645 10.2297 12.275 10.2193 12.2854C10.0369 12.4681 9.89329 12.6119 9.72111 12.7174C9.56938 12.8103 9.40395 12.8789 9.23092 12.9204C9.03456 12.9676 8.83135 12.9674 8.5732 12.9673C8.55848 12.9673 8.54359 12.9673 8.5285 12.9673H7.49585C7.24042 12.9673 7.03335 12.7602 7.03335 12.5048V11.4721C7.03335 11.457 7.03334 11.4422 7.03333 11.4274C7.03318 11.1693 7.03306 10.9661 7.0802 10.7697C7.12175 10.5967 7.19027 10.4313 7.28325 10.2795C7.38876 10.1073 7.53254 9.96373 7.71519 9.7813C7.7256 9.7709 7.73614 9.76037 7.7468 9.74971L13.6439 3.8526ZM15.4939 4.50669C15.1637 4.17643 14.6283 4.17643 14.298 4.50668L8.40088 10.4038C8.172 10.6327 8.11297 10.6959 8.07195 10.7628C8.02969 10.8318 7.99854 10.907 7.97966 10.9857C7.96133 11.062 7.95836 11.1484 7.95836 11.4721V12.0423H8.5285C8.85218 12.0423 8.93864 12.0393 9.01498 12.021C9.09363 12.0021 9.16882 11.9709 9.23779 11.9287C9.30473 11.8876 9.36796 11.8286 9.59684 11.5997L15.4939 5.70263C15.8242 5.37238 15.8242 4.83694 15.4939 4.50669ZM6.73606 4.64215L9.3459 4.64215C9.60133 4.64215 9.8084 4.84922 9.8084 5.10466C9.8084 5.36009 9.60133 5.56716 9.3459 5.56716H6.75586C6.23017 5.56716 5.86372 5.56752 5.57843 5.59083C5.29854 5.6137 5.13773 5.65633 5.01592 5.71839C4.75485 5.85142 4.54258 6.06368 4.40956 6.32476C4.34749 6.44657 4.30486 6.60737 4.282 6.88727C4.25869 7.17256 4.25833 7.53901 4.25833 8.0647V13.2448C4.25833 13.7705 4.25869 14.1369 4.282 14.4222C4.30486 14.7021 4.34749 14.8629 4.40956 14.9847C4.54258 15.2458 4.75485 15.458 5.01593 15.5911C5.13773 15.6531 5.29854 15.6958 5.57843 15.7186C5.86372 15.7419 6.23017 15.7423 6.75586 15.7423H11.9359C12.4616 15.7423 12.8281 15.7419 13.1134 15.7186C13.3933 15.6958 13.5541 15.6531 13.6759 15.5911C13.9369 15.458 14.1492 15.2458 14.2822 14.9847C14.3443 14.8629 14.3869 14.7021 14.4098 14.4222C14.4331 14.1369 14.4335 13.7705 14.4335 13.2448V10.6547C14.4335 10.3993 14.6405 10.1922 14.896 10.1922C15.1514 10.1922 15.3585 10.3993 15.3585 10.6547V13.2646C15.3585 13.7658 15.3585 14.1701 15.3317 14.4975C15.3042 14.8346 15.246 15.1307 15.1064 15.4047C14.8847 15.8398 14.5309 16.1936 14.0958 16.4153C13.8219 16.5548 13.5258 16.613 13.1887 16.6406C12.8613 16.6673 12.457 16.6673 11.9557 16.6673H6.73605C6.2348 16.6673 5.8305 16.6673 5.5031 16.6406C5.16601 16.613 4.86992 16.5548 4.59598 16.4153C4.16085 16.1936 3.80707 15.8398 3.58536 15.4047C3.44579 15.1307 3.3876 14.8346 3.36005 14.4975C3.3333 14.1701 3.33331 13.7658 3.33331 13.2646V8.0449C3.33331 7.54364 3.3333 7.13934 3.36005 6.81194C3.3876 6.47484 3.44579 6.17875 3.58536 5.90482C3.80707 5.46968 4.16085 5.11591 4.59598 4.8942C4.86992 4.75462 5.16601 4.69643 5.5031 4.66889C5.8305 4.64214 6.2348 4.64215 6.73606 4.64215Z" fill="#4B5563"/>
</svg>
