<svg width="84" height="84" viewBox="0 0 84 84" fill="none" xmlns="http://www.w3.org/2000/svg">
<path d="M76.1256 38.5V59.5C76.3312 61.2733 76.1331 63.0701 75.5461 64.7561C74.9592 66.442 73.9987 67.9734 72.7364 69.2357C71.474 70.4981 69.9426 71.4586 68.2567 72.0455C66.5708 72.6324 64.7739 72.8305 63.0006 72.625H21.0006C19.2273 72.8305 17.4305 72.6324 15.7445 72.0455C14.0586 71.4586 12.5272 70.4981 11.2649 69.2357C10.0026 67.9734 9.04202 66.442 8.4551 64.7561C7.86818 63.0701 7.67008 61.2733 7.87562 59.5V24.5C7.67008 22.7267 7.86818 20.9299 8.4551 19.2439C9.04202 17.558 10.0026 16.0266 11.2649 14.7643C12.5272 13.502 14.0586 12.5414 15.7445 11.9545C17.4305 11.3676 19.2273 11.1695 21.0006 11.375H45.5006C46.1968 11.375 46.8645 11.6516 47.3568 12.1438C47.8491 12.6361 48.1256 13.3038 48.1256 14C48.1256 14.6962 47.8491 15.3639 47.3568 15.8562C46.8645 16.3484 46.1968 16.625 45.5006 16.625H21.0006C15.4811 16.625 13.1256 18.9805 13.1256 24.5V56.875L22.0156 47.985C22.6764 47.3293 23.5697 46.9613 24.5006 46.9613C25.4316 46.9613 26.3248 47.3293 26.9856 47.985L30.2756 51.275C30.6027 51.5956 31.0425 51.7753 31.5006 51.7753C31.9587 51.7753 32.3985 51.5956 32.7256 51.275L50.0156 33.985C50.6764 33.3293 51.5697 32.9613 52.5006 32.9613C53.4316 32.9613 54.3248 33.3293 54.9856 33.985L70.8756 49.875V38.5C70.8756 37.8038 71.1522 37.1361 71.6445 36.6438C72.1367 36.1516 72.8044 35.875 73.5006 35.875C74.1968 35.875 74.8645 36.1516 75.3568 36.6438C75.8491 37.1361 76.1256 37.8038 76.1256 38.5ZM27.9761 27.125C26.8141 27.1282 25.7008 27.5926 24.8809 28.416C24.0609 29.2394 23.6012 30.3546 23.6029 31.5166C23.6045 32.6787 24.0673 33.7926 24.8895 34.6137C25.7118 35.4348 26.8263 35.896 27.9884 35.896C29.1504 35.896 30.265 35.4348 31.0872 34.6137C31.9095 33.7926 32.3722 32.6787 32.3739 31.5166C32.3755 30.3546 31.9158 29.2394 31.0959 28.416C30.2759 27.5926 29.1627 27.1282 28.0006 27.125H27.9761ZM59.5006 20.125H63.8756V24.5C63.8756 25.1962 64.1522 25.8639 64.6445 26.3562C65.1367 26.8484 65.8044 27.125 66.5006 27.125C67.1968 27.125 67.8645 26.8484 68.3568 26.3562C68.8491 25.8639 69.1256 25.1962 69.1256 24.5V20.125H73.5006C74.1968 20.125 74.8645 19.8484 75.3568 19.3562C75.8491 18.8639 76.1256 18.1962 76.1256 17.5C76.1256 16.8038 75.8491 16.1361 75.3568 15.6438C74.8645 15.1516 74.1968 14.875 73.5006 14.875H69.1256V10.5C69.1256 9.80381 68.8491 9.13613 68.3568 8.64384C67.8645 8.15156 67.1968 7.875 66.5006 7.875C65.8044 7.875 65.1367 8.15156 64.6445 8.64384C64.1522 9.13613 63.8756 9.80381 63.8756 10.5V14.875H59.5006C58.8044 14.875 58.1367 15.1516 57.6445 15.6438C57.1522 16.1361 56.8756 16.8038 56.8756 17.5C56.8756 18.1962 57.1522 18.8639 57.6445 19.3562C58.1367 19.8484 58.8044 20.125 59.5006 20.125Z" fill="#9CA3AF"/>
</svg>
