<svg width="140" height="61" viewBox="0 0 140 61" fill="none" xmlns="http://www.w3.org/2000/svg">
<g clip-path="url(#clip0_6352_18560)">
<path d="M42.4921 14.1658L40.342 17.5077L36.7387 23.1145C36.6309 23.0538 36.5238 22.9957 36.4161 22.9377C36.3056 22.8797 36.1978 22.825 36.088 22.773C35.9748 22.715 35.8582 22.663 35.7396 22.6111C35.6352 22.5618 35.5247 22.5159 35.4169 22.4721C35.2922 22.4201 35.1641 22.3708 35.036 22.3243C34.9343 22.2865 34.83 22.252 34.7283 22.217C34.3738 22.0982 34.0166 21.9969 33.6505 21.916C33.4208 21.8613 33.1883 21.8174 32.9558 21.7796C32.7931 21.7533 32.6304 21.7304 32.4705 21.7128C32.2725 21.6865 32.078 21.6696 31.8808 21.6548C31.6218 21.6372 31.3609 21.6285 31.1019 21.6285C24.9331 21.6285 19.8942 26.5496 19.7369 32.6544H13.1234C13.28 22.9161 21.2857 15.0438 31.1019 15.0438C32.2122 15.0438 33.3103 15.145 34.3738 15.3421C34.3738 15.3421 34.3758 15.343 34.3799 15.3448H34.3826L34.3887 15.3475C34.4409 15.3616 34.4931 15.3792 34.5453 15.3907C34.7025 15.4372 34.8591 15.4804 35.0164 15.5148C35.0658 15.5263 35.118 15.5378 35.1675 15.5466C35.3858 15.5958 35.6033 15.6363 35.8216 15.668C36.2866 15.7349 36.7516 15.7666 37.205 15.7666C37.5623 15.7666 37.914 15.7463 38.2658 15.7085C38.3817 15.6971 38.4983 15.6795 38.6142 15.662C38.7301 15.6478 38.8467 15.6275 38.9599 15.6039C39.0643 15.5864 39.1694 15.5661 39.2738 15.5405C39.5151 15.4885 39.7564 15.4251 39.9943 15.3522C40.058 15.332 40.1224 15.3117 40.1888 15.2888C40.2613 15.2685 40.3339 15.2422 40.4037 15.2166C40.5169 15.1788 40.6301 15.1356 40.7406 15.089C40.8483 15.0485 40.9554 15.0019 41.0605 14.9534C41.0666 14.9507 41.072 14.9473 41.0781 14.9446C41.1859 14.9014 41.2903 14.8521 41.3947 14.7968C41.5024 14.7475 41.6068 14.6929 41.7112 14.6348C41.7139 14.6321 41.72 14.6287 41.7254 14.626C41.8271 14.5741 41.9315 14.516 42.0305 14.4526C42.1348 14.3946 42.2365 14.3311 42.3382 14.2616C42.3904 14.2299 42.4426 14.1982 42.4921 14.1631V14.1658Z" fill="#24A9E4"/>
<path d="M24.4909 42.1614L20.9222 47.7047C16.0371 44.3628 13.1198 38.8485 13.1198 32.9494C13.1198 32.8509 13.1198 32.7524 13.1225 32.6572H19.736C19.7333 32.7558 19.7333 32.8509 19.7333 32.9494C19.7333 33.5602 19.7827 34.1615 19.8817 34.7547C19.8932 34.8296 19.9047 34.9025 19.9197 34.9774C19.9373 35.0874 19.9603 35.1947 19.9834 35.3014C20.024 35.4984 20.0735 35.6948 20.1257 35.8885C20.2769 36.45 20.4714 36.9966 20.7066 37.5257C20.7446 37.6155 20.7852 37.7025 20.8286 37.7889C21.0726 38.3099 21.3607 38.8134 21.6861 39.2932C21.8691 39.5625 22.067 39.8257 22.2731 40.0801C22.9095 40.8616 23.6504 41.5641 24.4902 42.16L24.4909 42.1614Z" fill="#005887"/>
<path d="M49.152 32.9501C49.152 42.8619 41.0561 50.9225 31.1009 50.9225C30.2144 50.9225 29.34 50.8618 28.4798 50.7342C28.0033 50.6013 27.5119 50.5088 27.0062 50.4596C26.727 50.4332 26.4457 50.4191 26.1603 50.4191C24.0157 50.4191 22.0514 51.2033 20.5432 52.5024L22.839 48.9323L22.8566 48.906L22.8539 48.9033L22.8769 48.8716L26.466 43.2904C26.5473 43.3282 26.6287 43.3626 26.7127 43.3944C26.8056 43.4349 26.8985 43.4726 26.992 43.5071C27.0008 43.5131 27.0096 43.5158 27.0184 43.5185C27.196 43.5854 27.3756 43.6488 27.5559 43.7095C27.5648 43.7122 27.5702 43.7156 27.579 43.7183C27.7125 43.7615 27.8494 43.802 27.9857 43.8398C28.128 43.8803 28.2731 43.9181 28.4188 43.9525C28.5001 43.9727 28.5842 43.993 28.6689 44.0105C28.6865 44.0132 28.7069 44.0193 28.7238 44.022C28.8574 44.051 28.9882 44.0767 29.1217 44.0969C29.1332 44.0996 29.1448 44.103 29.1536 44.103C29.3047 44.1293 29.4532 44.1522 29.6036 44.1725C29.7778 44.1954 29.9554 44.213 30.1323 44.2271C30.4523 44.2535 30.7742 44.2676 31.1003 44.2676C37.3681 44.2676 42.468 39.1899 42.468 32.9494C42.468 32.8509 42.468 32.7558 42.4619 32.6572H49.1452C49.1513 32.7558 49.1513 32.8509 49.1513 32.9494L49.152 32.9501Z" fill="#DD5510"/>
<path d="M49.1463 32.6574H42.4629C42.4629 32.5447 42.4568 32.4319 42.4514 32.3186C42.4399 32.1249 42.425 31.9278 42.4019 31.7341C42.3931 31.6356 42.3816 31.5344 42.3674 31.4331C42.3531 31.3346 42.3382 31.2334 42.3206 31.1349C42.3064 31.0363 42.2887 30.9378 42.2684 30.8399C42.2569 30.7677 42.242 30.6921 42.225 30.6199C42.2162 30.568 42.2047 30.5187 42.1932 30.4667C42.1322 30.1975 42.0623 29.9343 41.9837 29.6738C41.9369 29.5206 41.8881 29.3701 41.8353 29.2223C41.7973 29.115 41.76 29.011 41.7194 28.9037C41.7078 28.872 41.6963 28.843 41.6848 28.8113C41.6123 28.6318 41.5364 28.4496 41.455 28.2734C41.3852 28.1202 41.3127 27.9697 41.2368 27.8219C41.1758 27.7032 41.1148 27.5878 41.051 27.4717C41.0483 27.469 41.0483 27.4656 41.0449 27.4629C40.9724 27.33 40.8965 27.1997 40.8152 27.0722C40.7365 26.9419 40.6552 26.8144 40.5711 26.6875C40.5162 26.6038 40.4579 26.5194 40.3997 26.4385C40.3298 26.3345 40.2546 26.2333 40.1787 26.1348C39.9489 25.8338 39.7049 25.5443 39.4466 25.2642C39.3795 25.1893 39.307 25.1137 39.2345 25.0442C39.185 24.9922 39.1389 24.9429 39.086 24.8937C39.0366 24.8444 38.9844 24.7952 38.9322 24.7459C38.9234 24.7371 38.9118 24.7256 38.9003 24.7169C38.7986 24.6183 38.6942 24.5259 38.5892 24.4334L42.181 18.8469L42.204 18.8152L42.2216 18.7861C46.5482 22.1598 49.0622 27.2024 49.1463 32.656V32.6574Z" fill="#EF8902"/>
<path d="M12.9394 18.3378C15.6677 18.3378 17.8794 16.1358 17.8794 13.4194C17.8794 10.703 15.6677 8.50098 12.9394 8.50098C10.2111 8.50098 7.99944 10.703 7.99944 13.4194C7.99944 16.1358 10.2111 18.3378 12.9394 18.3378Z" fill="#F08803"/>
<path d="M55.3615 17.1348V32.187H59.3064V17.1348H55.3615Z" fill="#1756BD"/>
<path d="M68.5711 21.0703C67.2318 21.0703 66.152 21.5636 65.3976 22.4234V21.2849H61.4438V32.1861H65.3976V26.4463C65.3976 25.2194 66.0659 24.5742 67.082 24.5742C68.0092 24.5742 68.6572 25.1762 68.6572 26.2088V32.1867H72.611V24.9845C72.611 22.5334 70.8398 21.071 68.5705 21.071L68.5711 21.0703Z" fill="#1756BD"/>
<path d="M77.9874 24.2955C77.9874 23.9081 78.4422 23.6935 79.1335 23.6935C80.3197 23.6935 81.9614 24.2294 83.9481 25.2187V21.9733C82.3728 21.2849 80.8613 21.0703 79.4989 21.0703C76.2162 21.0703 74.0994 22.4666 74.0994 24.5742C74.0994 28.2954 80.6878 27.5214 80.6878 29.0898C80.6878 29.4339 80.233 29.629 79.585 29.629C78.2029 29.629 76.345 28.9838 74.338 27.9715V31.412C76.1952 32.1003 77.4912 32.4013 79.1329 32.4013C82.4359 32.4013 84.5954 31.0678 84.5954 28.8974C84.5954 24.9609 77.9867 25.457 77.9867 24.2955H77.9874Z" fill="#1756BD"/>
<path d="M92.8475 21.069C91.681 21.069 90.6676 21.4989 89.9105 22.273V21.2836H86.3885V36.2704H89.9105V31.2184C90.6676 31.9695 91.6613 32.3994 92.8278 32.3994C95.8719 32.3994 98.1175 30.0772 98.1175 26.7453C98.1175 23.4135 95.8712 21.0684 92.8475 21.0684V21.069ZM91.9202 28.9164C90.6676 28.9164 89.7803 28.0134 89.7803 26.746C89.7803 25.4786 90.6676 24.5527 91.9202 24.5527C93.1728 24.5527 94.0371 25.4557 94.0371 26.746C94.0371 28.0364 93.1728 28.9164 91.9202 28.9164Z" fill="#1756BD"/>
<path d="M103.487 21.3701V32.1876H99.8497V21.3701C100.365 21.7312 100.993 21.9438 101.67 21.9438C102.346 21.9438 102.974 21.7318 103.487 21.3701Z" fill="#1756BD"/>
<path d="M112.822 21.1348C111.204 21.1348 110.167 21.7799 109.496 23.0932V21.2866H105.969V32.1877H109.496V28.5981C109.496 25.5018 110.878 24.7703 112.716 24.7703C113.364 24.7703 114.032 24.9626 114.377 25.2002V21.4155C114.098 21.2866 113.6 21.1348 112.822 21.1348Z" fill="#1756BD"/>
<path d="M120.9 21.0703C117.641 21.0703 115.092 23.4789 115.092 26.7041C115.092 30.1446 118.029 32.4013 121.917 32.4013C123.126 32.4013 124.431 32.2265 125.6 31.8338V28.4709C124.025 29.2308 122.957 29.2855 122.219 29.2855C120.598 29.2855 119.562 28.8326 119.129 27.6941H126.386C127.057 23.4796 124.465 21.071 120.9 21.071V21.0703ZM118.937 25.5859C119.153 24.4015 119.973 23.8859 120.987 23.8859C122.196 23.8859 122.585 24.7693 122.629 25.5859H118.937Z" fill="#1756BD"/>
<path d="M101.671 21.0819C102.943 21.0819 103.975 20.0549 103.975 18.788C103.975 17.5211 102.943 16.4941 101.671 16.4941C100.398 16.4941 99.3667 17.5211 99.3667 18.788C99.3667 20.0549 100.398 21.0819 101.671 21.0819Z" fill="#EE8D0F"/>
<path d="M99.5357 40.3793C99.5357 42.8162 97.7463 44.5061 95.2519 44.5061C92.7575 44.5061 90.9796 42.8162 90.9796 40.3793C90.9796 37.9423 92.7575 36.2295 95.2519 36.2295C97.7463 36.2295 99.5357 37.9308 99.5357 40.3793ZM97.85 40.3678C97.85 38.8385 96.7533 37.7695 95.2519 37.7695C93.7505 37.7695 92.6653 38.8385 92.6653 40.3678C92.6653 41.897 93.762 42.9653 95.2519 42.9653C96.7417 42.9653 97.85 41.8964 97.85 40.3678Z" fill="#22A7E8"/>
<path d="M106.222 40.8035V44.3897H104.721V41.1133C104.721 40.4924 104.305 40.0557 103.624 40.0557C102.874 40.0557 102.308 40.458 102.308 41.4581V44.3897H100.807V38.7573H102.308V39.2979C102.7 38.8727 103.266 38.6426 103.982 38.6426C105.206 38.6426 106.222 39.4355 106.222 40.8035H106.222Z" fill="#22A7E8"/>
<path d="M109.292 36.3438V44.3909H107.791V36.3438H109.292Z" fill="#22A7E8"/>
<path d="M112.409 36.3438V37.7691H110.908V36.3438H112.409ZM110.908 38.7578H112.409V44.3902H110.908V38.7578Z" fill="#22A7E8"/>
<path d="M119.441 40.8035V44.3897H117.94V41.1133C117.94 40.4924 117.525 40.0557 116.843 40.0557C116.093 40.0557 115.527 40.458 115.527 41.4581V44.3897H114.026V38.7573H115.527V39.2979C115.92 38.8727 116.486 38.6426 117.201 38.6426C118.425 38.6426 119.442 39.4355 119.442 40.8035H119.441Z" fill="#22A7E8"/>
<path d="M126.414 42.1384H122.315C122.569 42.9084 123.262 43.15 124.139 43.15C124.589 43.15 125.317 43.0927 126.287 42.4488V43.943C125.617 44.3911 124.67 44.5058 124.046 44.5058C122.083 44.5058 120.663 43.2877 120.663 41.5627C120.663 39.8378 121.934 38.6426 123.631 38.6426C125.328 38.6426 126.691 39.9073 126.413 42.137L126.414 42.1384ZM122.246 41.012H124.867C124.833 40.242 124.336 39.9201 123.678 39.9201C122.939 39.9201 122.396 40.2994 122.246 41.012Z" fill="#22A7E8"/>
</g>
<defs>
<clipPath id="clip0_6352_18560">
<rect width="124" height="44" fill="white" transform="translate(8 8.5)"/>
</clipPath>
</defs>
</svg>
