<svg width="20" height="20" viewBox="0 0 20 20" fill="none" xmlns="http://www.w3.org/2000/svg">
<path fill-rule="evenodd" clip-rule="evenodd" d="M10.0001 1.04102C6.43321 1.04102 3.54172 3.93251 3.54172 7.49935V8.0861C3.54172 8.66687 3.36981 9.23464 3.04766 9.71787L2.09049 11.1536C0.979577 12.82 1.82767 15.085 3.75983 15.612C4.3895 15.7837 5.0245 15.929 5.66317 16.0478L5.66475 16.052C6.30558 17.7619 8.01834 18.9577 10 18.9577C11.9817 18.9577 13.6944 17.7619 14.3352 16.052L14.3368 16.0478C14.9755 15.929 15.6106 15.7837 16.2403 15.612C18.1724 15.085 19.0205 12.82 17.9096 11.1536L16.9524 9.71787C16.6303 9.23464 16.4584 8.66687 16.4584 8.0861V7.49935C16.4584 3.93251 13.5669 1.04102 10.0001 1.04102ZM12.8137 16.2802C10.9446 16.5035 9.05539 16.5035 7.18626 16.2801C7.77872 17.1314 8.8092 17.7077 10 17.7077C11.1908 17.7077 12.2213 17.1314 12.8137 16.2802ZM4.79172 7.49935C4.79172 4.62287 7.12357 2.29102 10.0001 2.29102C12.8765 2.29102 15.2084 4.62287 15.2084 7.49935V8.0861C15.2084 8.91365 15.4533 9.72268 15.9124 10.4112L16.8696 11.847C17.5072 12.8035 17.0204 14.1035 15.9114 14.406C12.0412 15.4615 7.95893 15.4615 4.08872 14.406C2.9797 14.1035 2.49291 12.8035 3.13055 11.847L4.08772 10.4112C4.54676 9.72268 4.79172 8.91365 4.79172 8.0861V7.49935Z" fill="#6B7280"/>
</svg>
