<svg width="20" height="20" viewBox="0 0 20 20" fill="none" xmlns="http://www.w3.org/2000/svg">
<path fill-rule="evenodd" clip-rule="evenodd" d="M5.41754 2.2108C4.28649 2.28682 3.70561 2.48319 3.30042 2.9097C2.97701 3.25013 2.78668 3.71585 2.6864 4.50098C2.58461 5.29796 2.58365 6.34571 2.58365 7.80645L2.58365 12.1924C2.58365 13.6532 2.58461 14.7009 2.6864 15.4979C2.78668 16.283 2.97701 16.7487 3.30042 17.0892C3.62039 17.426 4.0527 17.6214 4.78667 17.7253C5.53777 17.8316 6.5272 17.8328 7.91698 17.8328L9.16698 17.8328C9.44313 17.8328 9.66698 18.0566 9.66698 18.3328C9.66698 18.6089 9.44313 18.8328 9.16698 18.8328L7.87733 18.8328C6.53604 18.8328 5.4758 18.8328 4.64655 18.7154C3.79202 18.5945 3.10972 18.3403 2.57542 17.7779C2.04456 17.2191 1.80775 16.5116 1.69446 15.6246C1.58363 14.7569 1.58364 13.6452 1.58365 12.2287L1.58365 7.77012C1.58364 6.35361 1.58363 5.24199 1.69446 4.37428C1.80775 3.4873 2.04456 2.77976 2.57542 2.22095C3.30298 1.4551 4.30983 1.25735 5.66502 1.1953C5.69264 1.18544 5.72151 1.17789 5.75145 1.1729C5.82534 1.16058 5.89815 1.16515 5.96593 1.18378C6.53101 1.16609 7.17645 1.16609 7.90901 1.16609L10.425 1.16609C11.2221 1.16609 11.916 1.16609 12.5156 1.18889C13.9485 1.24336 15.0038 1.42649 15.7585 2.22095C16.2894 2.77976 16.5262 3.4873 16.6395 4.37428C16.7503 5.24199 16.7503 6.35361 16.7503 7.77012V10.388C16.7503 10.6641 16.5265 10.888 16.2503 10.888C15.9742 10.888 15.7503 10.6641 15.7503 10.388V7.80645C15.7503 6.3457 15.7494 5.29796 15.6476 4.50097C15.5473 3.71585 15.357 3.25013 15.0335 2.9097C14.6284 2.48319 14.0475 2.28682 12.9164 2.2108C12.8392 2.67452 12.7731 3.0674 12.6803 3.3792C12.58 3.71587 12.4328 4.01677 12.1559 4.25138C11.8789 4.48599 11.5579 4.5817 11.2094 4.62521C10.8817 4.66613 10.4761 4.66611 9.99666 4.66609H8.3373C7.85787 4.66611 7.45229 4.66613 7.12458 4.62521C6.77602 4.5817 6.45502 4.48599 6.17807 4.25138C5.90112 4.01677 5.75394 3.71587 5.65371 3.3792C5.56089 3.0674 5.49481 2.67452 5.41754 2.2108ZM11.9088 2.17335C11.8392 2.58699 11.7871 2.87449 11.7218 3.09387C11.6515 3.33011 11.5823 3.42675 11.5095 3.48836C11.4368 3.54997 11.3301 3.60238 11.0855 3.63292C10.8271 3.66518 10.4844 3.66609 9.96583 3.66609L8.36813 3.66609C7.84956 3.66609 7.50691 3.66518 7.24847 3.63292C7.00388 3.60238 6.89717 3.54997 6.82444 3.48836C6.75171 3.42675 6.68247 3.33011 6.61214 3.09387C6.54683 2.87449 6.49472 2.58699 6.42518 2.17335C6.86768 2.16613 7.36126 2.16609 7.91698 2.16609L10.417 2.16609C10.9727 2.16609 11.4663 2.16613 11.9088 2.17335ZM5.33365 9.16609C5.33365 8.88995 5.55751 8.66609 5.83365 8.66609L12.5003 8.66609C12.7765 8.66609 13.0003 8.88995 13.0003 9.16609C13.0003 9.44224 12.7765 9.66609 12.5003 9.66609L5.83365 9.66609C5.55751 9.66609 5.33365 9.44224 5.33365 9.16609ZM14.2417 12.2584C12.4309 12.2584 10.963 13.7263 10.963 15.5372C10.963 17.348 12.4309 18.8159 14.2417 18.8159C16.0525 18.8159 17.5205 17.348 17.5205 15.5372C17.5205 13.7263 16.0525 12.2584 14.2417 12.2584ZM9.96297 15.5372C9.96297 13.1741 11.8786 11.2584 14.2417 11.2584C16.6048 11.2584 18.5205 13.1741 18.5205 15.5372C18.5205 17.9002 16.6048 19.8159 14.2417 19.8159C11.8786 19.8159 9.96297 17.9002 9.96297 15.5372ZM5.33365 13.3328C5.33365 13.0566 5.55751 12.8328 5.83365 12.8328H9.16698C9.44313 12.8328 9.66698 13.0566 9.66698 13.3328C9.66698 13.6089 9.44313 13.8328 9.16698 13.8328H5.83365C5.55751 13.8328 5.33365 13.6089 5.33365 13.3328ZM16.3768 13.8446C16.5721 14.0399 16.5721 14.3565 16.3768 14.5517L13.8541 17.0744C13.6589 17.2697 13.3423 17.2697 13.147 17.0744L12.1065 16.0339C11.9112 15.8386 11.9112 15.522 12.1065 15.3268C12.3018 15.1315 12.6183 15.1315 12.8136 15.3268L13.5006 16.0138L15.6697 13.8446C15.865 13.6494 16.1816 13.6494 16.3768 13.8446Z" fill="#6B7280"/>
</svg>
