<svg width="20" height="20" viewBox="0 0 20 20" fill="none" xmlns="http://www.w3.org/2000/svg">
<g clip-path="url(#clip0_7063_6691)">
<path fill-rule="evenodd" clip-rule="evenodd" d="M18.0359 12.123L19.1007 15.2219C19.2505 15.6579 19.141 16.1313 18.8151 16.4573C18.5856 16.6869 18.2831 16.809 17.972 16.809C17.8384 16.8089 17.7058 16.7866 17.5796 16.7431L14.4807 15.6782C13.4882 16.1637 12.3904 16.4323 11.2808 16.4615C10.2146 17.9177 8.53342 18.7783 6.7248 18.7783H6.71591C5.88196 18.777 5.05299 18.5893 4.30336 18.2336L2.16892 18.9671C2.06025 19.0044 1.94882 19.0226 1.83867 19.0226C1.57689 19.0226 1.32233 18.9198 1.12926 18.7267C0.854904 18.4524 0.762808 18.054 0.888885 17.687L1.62233 15.5526C1.26665 14.803 1.07895 13.974 1.07763 13.1401C1.07487 11.358 1.9138 9.68955 3.33513 8.61942C3.36045 6.58785 4.16031 4.68674 5.60242 3.24467C7.09798 1.74914 9.08729 0.94412 11.2037 0.977564C13.2447 1.0099 15.1605 1.83386 16.5981 3.29759C18.0355 4.76104 18.8253 6.6913 18.8222 8.73278C18.8204 9.90687 18.5491 11.0738 18.0359 12.123ZM6.7176 17.6871H6.72472C7.93351 17.6871 9.07204 17.21 9.91666 16.3775C8.31707 16.1364 6.83458 15.3988 5.6552 14.2404C4.46704 13.0734 3.70051 11.5914 3.43668 9.98303C2.62898 10.8257 2.1671 11.9511 2.16892 13.1384C2.17007 13.8766 2.35204 14.6096 2.69515 15.2581C2.73004 15.3241 2.75103 15.3965 2.75683 15.4709C2.76264 15.5453 2.75312 15.62 2.72888 15.6906L1.97682 17.8792L4.16547 17.1272C4.23603 17.1029 4.31082 17.0934 4.3852 17.0992C4.45959 17.105 4.53199 17.126 4.59795 17.1609C5.24646 17.504 5.97947 17.686 6.7176 17.6871ZM17.9341 15.7109C17.9755 15.7252 18.0123 15.7167 18.0433 15.6857C18.0744 15.6547 18.0829 15.618 18.0687 15.5764L16.9287 12.2589C16.9045 12.1884 16.895 12.1136 16.9008 12.0392C16.9066 11.9648 16.9276 11.8924 16.9625 11.8265C17.4635 10.8793 17.7292 9.80893 17.7309 8.73106C17.7365 5.1147 14.8007 2.12598 11.1864 2.06865C9.3682 2.04 7.65886 2.73148 6.37406 4.01628C5.08926 5.30108 4.39754 7.01013 4.42636 8.8286C4.48358 12.4394 7.46679 15.3732 11.0784 15.3732H11.0887C12.1666 15.3716 13.237 15.1058 14.1842 14.6047C14.2501 14.5698 14.3225 14.5488 14.3969 14.543C14.4713 14.5372 14.5461 14.5467 14.6166 14.571L17.9341 15.7109ZM7.82767 5.82844H14.3288C14.6302 5.82844 14.8745 6.07276 14.8745 6.37407C14.8745 6.67539 14.6302 6.91971 14.3288 6.91971H7.82767C7.52635 6.91971 7.28204 6.67543 7.28204 6.37407C7.28204 6.07276 7.52632 5.82844 7.82767 5.82844ZM7.82767 8.07252H14.3288C14.6302 8.07252 14.8745 8.31684 14.8745 8.61815C14.8745 8.91947 14.6302 9.16378 14.3288 9.16378H7.82767C7.52635 9.16378 7.28204 8.91947 7.28204 8.61815C7.28204 8.31684 7.52632 8.07252 7.82767 8.07252ZM7.82763 10.3165H11.8263C12.1277 10.3165 12.3719 10.5608 12.3719 10.8622C12.3719 11.1635 12.1277 11.4078 11.8263 11.4078H7.82763C7.52632 11.4078 7.282 11.1635 7.282 10.8622C7.282 10.5608 7.52628 10.3165 7.82763 10.3165Z" fill="#6B7280"/>
</g>
<defs>
<clipPath id="clip0_7063_6691">
<rect width="20" height="20" fill="white"/>
</clipPath>
</defs>
</svg>
