<svg width="20" height="20" viewBox="0 0 20 20" fill="none" xmlns="http://www.w3.org/2000/svg">
<path fill-rule="evenodd" clip-rule="evenodd" d="M17.4922 3.74756C17.5338 3.83931 17.5195 3.95646 17.5195 9.52012C18.1447 9.7418 18.5937 10.3388 18.5937 11.0391V12.1133C18.5937 12.4099 18.3533 12.6504 18.0566 12.6504H15.9082C15.6116 12.6504 15.3711 12.4099 15.3711 12.1133V11.0391C15.3711 10.3388 15.8202 9.74184 16.4453 9.52012V4.23161L14.2969 4.84545V7.2793C14.2969 9.36608 13.2202 11.1786 11.6518 12.0674L11.9483 12.6604C13.3978 12.7434 14.7522 13.3606 15.7925 14.4202C16.9062 15.5543 17.5195 17.0495 17.5195 18.6302C17.5195 18.9268 17.279 19.1673 16.9824 19.1673H1.94339C1.64676 19.1673 1.40628 18.9268 1.40628 18.6302C1.40628 17.0494 2.01962 15.5543 3.1333 14.4201C4.17371 13.3605 5.52812 12.7429 6.9777 12.6599L7.27401 12.0673C5.70558 11.1785 4.62893 9.36604 4.62893 7.27927V4.84541L1.79583 4.03599C1.56523 3.97011 1.40628 3.75938 1.40628 3.51954C1.40628 3.27971 1.56523 3.06895 1.79586 3.0031L9.31538 0.854663C9.41181 0.827092 9.51404 0.827092 9.61047 0.854663L17.13 3.0031C17.4346 3.09014 17.6007 3.42276 17.4801 3.72078C17.4846 3.73186 17.4886 3.73962 17.4922 3.74756ZM2.50929 18.0931H8.9258V16.5728L7.03274 13.7332C4.67419 13.8714 2.76362 15.7331 2.50929 18.0931ZM8.26676 12.4838L7.93426 13.1489L9.4629 15.4418L10.9915 13.1489L10.659 12.4839C10.2763 12.5925 9.87562 12.6504 9.4629 12.6504C9.05019 12.6504 8.64944 12.5925 8.26676 12.4838ZM16.4165 18.0931C16.1622 15.7331 14.2516 13.8714 11.8931 13.7332L10 16.5728V18.0931H16.4165ZM5.77519 8.11766C6.1174 10.087 7.64075 11.5762 9.4629 11.5762C11.285 11.5762 12.8084 10.087 13.1506 8.11776C12.0162 8.62375 10.7484 8.89063 9.4629 8.89063C8.17735 8.89063 6.90949 8.62372 5.77519 8.11766ZM12.9589 7.02221C13.0877 6.95897 13.1797 6.8282 13.2109 6.67301C13.2125 6.66512 13.2139 6.65903 13.2151 6.65289C13.2261 6.59774 13.2227 6.53973 13.2227 5.15232C9.63131 6.17844 9.55723 6.2074 9.48392 6.20559C9.47765 6.20543 9.47138 6.20505 9.4629 6.20505C9.45444 6.20505 9.44817 6.20543 9.4419 6.20558C9.36845 6.20737 9.29426 6.17834 5.70315 5.15232V6.55546C5.70315 6.73679 5.79163 6.93602 5.9668 7.02206C7.02422 7.5417 8.23314 7.81637 9.4629 7.81637C10.6926 7.81637 11.9014 7.54177 12.9589 7.02221ZM3.8985 3.51954L9.4629 5.10938L15.0273 3.51951L9.4629 1.92967L3.8985 3.51954ZM16.4453 11.0391V11.5762H17.5195V11.0391C17.5195 10.7429 17.2786 10.502 16.9824 10.502C16.6863 10.502 16.4453 10.7429 16.4453 11.0391ZM12.1484 16.4101C12.1484 16.1135 12.3889 15.873 12.6856 15.873H13.7598C14.0564 15.873 14.2969 16.1135 14.2969 16.4101C14.2969 16.7068 14.0564 16.9472 13.7598 16.9472H12.6856C12.3889 16.9472 12.1484 16.7068 12.1484 16.4101Z" fill="#6B7280"/>
</svg>
