<svg width="40" height="40" viewBox="0 0 40 40" fill="none" xmlns="http://www.w3.org/2000/svg">
<rect x="0.5" y="0.5" width="39" height="39" rx="7.5" fill="white"/>
<rect x="0.5" y="0.5" width="39" height="39" rx="7.5" stroke="#E5E7EB"/>
<path fill-rule="evenodd" clip-rule="evenodd" d="M20.0001 11.0416C16.4332 11.0416 13.5417 13.9331 13.5417 17.5V18.0867C13.5417 18.6675 13.3698 19.2353 13.0477 19.7185L12.0905 21.1542C10.9796 22.8206 11.8277 25.0856 13.7598 25.6126C14.3895 25.7843 15.0245 25.9296 15.6632 26.0484L15.6648 26.0526C16.3056 27.7625 18.0183 28.9583 20 28.9583C21.9817 28.9583 23.6944 27.7625 24.3352 26.0526L24.3368 26.0484C24.9755 25.9296 25.6106 25.7843 26.2403 25.6126C28.1724 25.0856 29.0205 22.8206 27.9096 21.1542L26.9524 19.7185C26.6303 19.2353 26.4584 18.6675 26.4584 18.0867V17.5C26.4584 13.9331 23.5669 11.0416 20.0001 11.0416ZM22.8137 26.2808C20.9446 26.5041 19.0554 26.5041 17.1863 26.2808C17.7787 27.132 18.8092 27.7083 20 27.7083C21.1908 27.7083 22.2213 27.132 22.8137 26.2808ZM14.7917 17.5C14.7917 14.6235 17.1236 12.2916 20.0001 12.2916C22.8765 12.2916 25.2084 14.6235 25.2084 17.5V18.0867C25.2084 18.9143 25.4533 19.7233 25.9124 20.4119L26.8696 21.8476C27.5072 22.8041 27.0204 24.1042 25.9114 24.4066C22.0412 25.4621 17.9589 25.4621 14.0887 24.4066C12.9797 24.1042 12.4929 22.8041 13.1306 21.8476L14.0877 20.4119C14.5468 19.7233 14.7917 18.9143 14.7917 18.0867V17.5Z" fill="#374151"/>
</svg>
